#define sawtooth_width 24
#define sawtooth_height 8
static unsigned char sawtooth_bits[] = {
   0x7f, 0x7f, 0x7f, 0x3f, 0x3f, 0x3f, 0x5f, 0x5f, 0x5f, 0x6f, 0x6f, 0x6f,
   0x77, 0x77, 0x77, 0x7b, 0x7b, 0x7b, 0x7d, 0x7d, 0x7d, 0x7e, 0x7e, 0x7e };
