#define sine_width 24
#define sine_height 8
static unsigned char sine_bits[] = {
   0xe7, 0xe7, 0xe7, 0xdb, 0xdb, 0xdb, 0xdb, 0xdb, 0xdb, 0xdb, 0xdb, 0xdb,
   0xbd, 0xbd, 0xbd, 0xbd, 0xbd, 0xbd, 0xbd, 0xbd, 0xbd, 0x7e, 0x7e, 0x7e };
