#define square_width 24
#define square_height 8
static unsigned char square_bits[] = {
   0x07, 0x07, 0x07, 0x77, 0x77, 0x77, 0x77, 0x77, 0x77, 0x77, 0x77, 0x77,
   0x77, 0x77, 0x77, 0x77, 0x77, 0x77, 0x77, 0x77, 0x77, 0x70, 0x70, 0x70 };
