#define triangle_width 24
#define triangle_height 8
static unsigned char triangle_bits[] = {
   0xef, 0xef, 0xef, 0xd7, 0xd7, 0xd7, 0xd7, 0xd7, 0xd7, 0xbb, 0xbb, 0xbb,
   0xbb, 0xbb, 0xbb, 0x7d, 0x7d, 0x7d, 0x7d, 0x7d, 0x7d, 0xfe, 0xfe, 0xfe };
